<svg enable-background="new 0 0 2520.756 1659.428" viewBox="0 0 2520.756 1659.428" xmlns="http://www.w3.org/2000/svg"><path d="m1542.599 29.761c3.8-.364 7.368 1.405 9.47 4.568 3.537-1.607 7.348-1.809 10.835.051 2.537-.92 5.205-1.809 7.348.515-.172 1.152-1.243 2.476-.101 3.497 1.314.152 2.658.263 4.023.334.425 1.112.738 2.335 1.607 3.234 1.193.091 2.406.03 3.639.01.01-1.738-.03-3.477.02-5.215 2.193.091 4.427.172 6.661.172 1.334-.748 2.678-1.476 4.164-2.011 1.112.627 2.203 1.324 3.255 2.112 1.759-.283 3.548-.606 5.296-1.092 4.154 1.253 8.803-.697 12.725 1.597 2.537 1.9 7.439-1.092 7.894 3.164 1.698-2.951 4.619-5.448 8.187-5.508 3.922.142 8.126-1.152 11.674 1.142.01-.879.03-2.648.03-3.527 3.689 1.284 5.842 5.498 6.327 9.228 3.022-2.001 2.921-5.367 2.759-8.581 2.133 1.728 3.911 3.881 4.568 6.62 4.488-.96 9.288.162 12.169 3.932 2.112-.98 6.246-.202 5.903-3.598 3.629 2.264 6.903-1.162 10.683-.344.02.718.071 2.163.091 2.881 3.366.697 7.105.93 9.743 3.447 2.254-.384 4.457-1.031 6.742-1.405.98.687 1.809 1.567 2.709 2.395 1.193-.141 2.416-.293 3.649-.445.03-1.112.081-3.345.111-4.457 1.961 2.274 4.023 4.498 6.074 6.721 19.412 1.424 13.084-2.486 21.64 5.114 3.851-1.87 9.794-2.224 11.957 2.304 2.365-.04 4.932-.687 7.176.495 2.062.96 4.346 2.052 6.549.677 3.618 1.749 7.864 2.901 9.784 6.832 4.498-.313 8.733-2.032 13.19-2.527.414 1.294.758 2.628 1.112 3.962.475.051 1.425.162 1.9.212 1.395-1.223 2.648-2.608 3.588-4.245 4.552 1.379 4.379.633 4.124 7.489 2.769 3.083 7.065 1.678 10.703 2.062.607.809 1.243 1.678 1.84 2.557.708-.414 1.455-.798 2.244-1.162.455-1.021.92-2.042 1.415-3.062 5.134-.152 8.53 4.882 9.38 9.44 1.395 2.456 3.345 4.619 6.165 5.397-1.183-.829-2.416-1.617-3.568-2.406.172-1.486.374-2.972.596-4.447 4.478-.586 7.56 3.487 10.663 6.105 2.739.071 5.488.02 8.258-.01 1.193 1.294 2.426 2.577 3.679 3.851 4.589.718 8.237 3.709 11.168 7.146 2.123.061 4.286-.01 6.438.313 1.253.829 1.314 2.385 1.637 3.719 4.437.364 9.45.849 12.139 4.922 5.609.869 11.138 2.911 15.221 7.014 1.172.424 2.385.839 3.618 1.273 1.607-.829 3.345-1.476 5.225-1.364.354 1.092.738 2.183 1.152 3.275.576.081 1.738.253 2.314.334 1.425 1.476 3.042 2.759 4.821 3.821.596.03 1.779.111 2.365.141.404.495 1.213 1.476 1.617 1.971 2.628.323 6.469-.536 7.732 2.567.677.04 2.052.121 2.729.162-.162.748-.475 2.224-.637 2.961.617.283 1.87.849 2.486 1.132 1.253-.131 2.527-.222 3.841-.263 1.263 1.587 1.324 3.719 1.749 5.64 1.546-.081 3.113-.182 4.71-.293.354-1.031.758-2.072 1.152-3.113.718 1.455 2.406 1.041 3.78 1.243-1.86 4.154-3.143 8.551-3.74 13.059 2.628-.071 5.003 1.031 7.368 2.082 2.709 1.213 5.771.546 8.591 1.294 1.081.879 2.021 1.941 3.022 2.972-.849.02-2.567.071-3.416.091-2.365 2.355-3.639 5.448-3.285 8.803.677.03 2.021.101 2.688.142.748.798 1.516 1.607 2.315 2.406.249 3.177.369 3.203 1.395 6.368 1.364.677 2.759 1.354 4.184 2.011 1.567.222 3.467-.03 4.599 1.415-.718 1.88-2.406 3.618-1.86 5.771 5.131 3.461 10.3-.134 11.128 9.976 1.496 2.577 3.214 5.023 5.094 7.348.728.02 2.173.081 2.901.101-.01 2.254-.01 4.508.01 6.772 1.011.819 2.031 1.647 3.093 2.486-.748 1.385-1.627 3.012-.829 4.599 3.072 2.8 7.793 3.598 10.006 7.358-1.122 2.102-4.356 1.405-6.408 2.133.263 2.426.859 4.801 1.698 7.105.01-1.354-.03-2.699.01-4.033.708.091 2.112.263 2.82.354 1.759 3.214 1.203 6.974-.182 10.218.687.111 2.052.313 2.739.414.849 1.981.576 5.367 3.265 5.822 4.342.642 2.785 5.865 9.258 12.189 1.172.03 2.385.061 3.628.111-.192 3.255-.232 6.529-.566 9.774 1.425.637 2.85 1.304 4.306 1.991-1.193 1.405-1.789 3.083-1.698 4.922 2.214.788 3.831 2.517 5.458 4.144 1.243.424 2.486.889 3.74 1.405-1.061 1.91-.93 4.104-.95 6.206 2.132-.546 4.316-1.172 6.479-1.728-.081.566-.243 1.708-.323 2.284-.809 1.081-1.587 2.193-2.304 3.305-1.718 1.223-4.063 2.284-4.134 4.75 1.9.111 4.104.293 6.095.556-.566.222-1.688.677-2.244.9.798.091 2.405.273 3.204.364-.182.566-.536 1.698-.718 2.264 1.738.313 3.608 1.597 5.407.849.576-.991 1.132-2.011 1.648-3.052.97-.081 2.901-.243 3.861-.323-.525 4.548-.424 9.137-.626 13.695.707 1.132 2.042 1.071 3.255 1.203 2.507-2.972 5.145-6.196 8.793-7.803.92 1.708-1.001 3.77-1.233 5.559 3.77-1.89 7.358-4.831 8.015-9.268.879.192 1.779.394 2.709.596-1.092 1.324-2.224 2.598-3.406 3.8.255 7.972 6.792 3.801 9.612 2.79.051-2.749.101-5.478.152-8.217 1.647.344 3.335.697 5.043 1.051.05 1.122.131 2.254.243 3.386 2.021-.02 4.053.283 6.034.839 3.224.97 5.943-1.637 9.056-1.961 1.94-.182 3.153-1.86 4.528-3.073.253-1.557.617-3.093 1.324-4.518.576.485 1.718 1.455 2.294 1.941-.809 2.881-1.536 5.781-2.102 8.723-.435.394-1.314 1.193-1.749 1.597-.122 1.213-.212 2.426-.273 3.649 1.829-.051 3.689-.101 5.569-.152.172-.495.505-1.476.667-1.971 2.587-.334 5.226-.111 7.853-.061.415.566 1.233 1.698 1.637 2.274 2.961-.96 5.438-2.891 7.489-5.215 2.072-2.426 5.438-3.123 7.631-5.438 13.94-13.616 13.035-7.352 17.859-13.796 3.517-.111 7.065-.424 10.481-1.435 1.577-1.526 3.174-3.265 5.438-3.76 1.324.303 2.699.768 4.053 1.193-1.233.192-2.446.374-3.628.556-.142 1.809-.243 3.608-.313 5.417 4.922.414 9.723-.839 14.605-1.273.909-1.122 2.082-1.809 3.517-2.092-1.779 2.608-4.508 4.215-7.085 5.882.121 1.951.586 3.861 1.314 5.69 4.346-.273 9.046.778 13.099-1.273.869 4.306 8.217 4.447 9.026.323 4.225 1.698 9.895 4.265 13.332-.243 1.466.01 2.961.04 4.488.081 1.387 4.126-2.07 3.393 10.592 4.922-.799-1.405-1.951-2.345-3.467-2.83-.051-.455-.162-1.364-.213-1.819 3.588-3.103 8.531.455 10.673 3.73.556 1.617 2.042.657 3.244.414 3.083-1.172 6.398 1.041 9.501-.232 1.981-.667 4.073-.697 6.185-.495.617 2.931 3.356 2.385 5.691 2.274-.627 1.375-1.163 2.759-1.708 4.144 13.928 1.699 8.968-2.754 17.758-.061-.172 1.445-.313 2.891-.414 4.346.809-.101 2.426-.293 3.244-.384.192-.97.404-1.951.657-2.911 1.446-.091 2.901-.172 4.407-.243-.253 5.377 5.286 8.46 10.097 8.005.232.475.707 1.435.94 1.91 2.557.536 4.296 2.567 6.196 4.215 3.619-.586 7.247 2.406 10.673.414.798.869 1.637 1.749 2.507 2.628 6.428-1.041 11.613 3.861 17.96 3.77.091.586.263 1.769.344 2.365 1.546 1.001 3.103 1.991 4.69 2.992 1.819-2.102 1.991-4.953 2.486-7.57 5.04-32.811-9.364-45.706.495-43.896 3.002.809 5.053 3.325 6.802 5.741 14.363 20.196 12.588 19.081 18.557 39.044.566 9.157 3.083 18.092 3.073 27.32.869 8.328.344 16.707.97 25.056 2.507-.04 5.013-.455 7.348-1.496 1.577 2.385 4.346 1.981 6.863 2.173 1.789.293 1.213 2.577 1.627 3.891 2.981 2.092 4.053 5.67 5.72 8.743-1.93.202-1.87 1.941-2.031 3.376-.566.192-1.718.576-2.294.768-.02.617-.071 1.85-.101 2.466 1.425 1.415 2.85 2.85 4.326 4.255 2.618-.212 4.194 1.92 3.942 4.427 2.375-.01 4.71-.546 6.984-1.324-.364 1.344-.819 2.668-1.263 3.982 1.041-.121 3.113-.354 4.154-.475-.384 3.942-4.366 5.953-5.276 9.693 2.406-.323 4.852-.566 7.318-.526.323 1.102.677 2.214 1.082 3.325 1.213.273 3.952-1.314 4.296.809.667 3.719-.536 7.56-.364 11.34.647.253 1.93.758 2.577 1.021.697-.081 2.102-.232 2.8-.303 1.011 1.759 1.324 3.719 1.112 5.751 1.87-1.092 3.912-1.789 6.145-1.749.02 1.395.071 2.81.141 4.225 1.86-1.486 4.316-1.172 6.58-1.253 1.173 1.506 2.87 1.86 4.619 1.092.99 2.042 3.002 2.86 5.125 3.366-.03 2.193-.202 4.387-.556 6.56 2.375 1.314 4.659 2.81 6.893 4.397 2.011.02 4.043.04 6.105.03.708-.728 1.556-1.284 2.537-1.658.556 1.668.798 3.416.92 5.195-.617 1.142-1.193 2.304-1.718 3.467 2.547 0 5.134 0 7.732.01.041.485.121 1.466.162 1.951-2.618 1.405-5.296 2.689-7.904 4.073 1.789.738 3.719 1.021 5.69 1.203.03.92.101 2.759.131 3.669-.445.283-1.334.849-1.779 1.122 2.557-.081 4.346 1.445 5.276 3.74-2.678-1.031-5.306-2.213-7.975-3.174-.364 3.77 3.164 5.842 6.014 7.398 3.628.273 7.166 1.294 10.835 1.395-.334 1.021-.172 2.709-1.617 2.82-2.264.809-4.538 1.567-6.731 2.426.576.809 1.203 1.617 1.849 2.426-.091.92-.141 1.85-.151 2.79-1.526.708-2.325 2.092-2.971 3.538-2.173.323-4.346.657-6.459 1.081 1.88 3.123 5.175 5.023 8.278 6.792 3.375.728 6.65-.869 9.996-1.203.465.384 1.375 1.142 1.84 1.526 1.89-.93 3.881-1.698 5.963-2.224.03-.303.101-.91.132-1.203 1.374-1.88 2.911-3.73 4.932-4.983 1.173 3.366-1.738 5.498-4.477 6.539-2.577 3.598-5.68 6.762-8.288 10.33-2.365.03-4.7.212-6.994.566.475.788.98 1.587 1.516 2.395-.677.9-1.314 1.819-1.92 2.749 1.476-.071 2.982-.152 4.508-.222-1.627 1.557-1.85 3.679-1.799 5.781-1.223 2.244-2.638 4.376-4.094 6.458 2.83 1.334 5.205-1.041 7.803-1.88 1.799-.243 3.628-.162 5.508-.192-.051 1.233-.051 2.466-.051 3.709-4.397.667-8.45 3.467-10.572 7.368 2.375.131 5.195-.687 7.034 1.365-1.496 1.051-2.921 2.102-4.386 3.143-.172 2.678-.364 5.367-.586 8.055.718-.152 2.143-.465 2.85-.617.224 5.022-3.652 6.976-13.099 16.212.445.819.92 1.648 1.425 2.476-1.092 2.618-1.941 5.326-2.456 8.116 1.304.03 2.648.091 4.023.172 1.637 2.183 4.568 2.507 6.893 3.699-.101.708-.293 2.112-.394 2.81 1.769.657 3.548 1.324 5.357 1.981 1.375 3.356 3.538 6.398 4.356 9.986.526 2.294 1.415 4.548 2.881 6.438-2.123-1.152-4.831-1.769-5.872-4.174-3.557-7.522-8.375-10.664-15.181-5.448-2.052 1.344-1.92 4.023-2.507 6.125.596 1.193 1.203 2.436 1.971 3.598 1.607.647 3.396.849 5.135 1.253-1.162 5.205-8.015 2.446-10.521 5.377l.485.869c.465.182 1.405.526 1.87.697-.03 1.203-.02 2.416.02 3.639-3.315 1.162-6.62 2.315-9.824 3.689-.081 1.375-.182 2.739-.202 4.124-1.607.94-3.335 1.91-3.568 3.952 2.193.798 4.387 1.698 6.57 2.628.283 1.617.556 3.224.899 4.862 3.679-1.718 7.742-.768 11.482.253-.576 4.296-7.297 4.599-7.398 9.491 1.9 1.769 4.589 2.699 6.206 4.75.192 3.295-2.891 5.094-5.478 6.236 1.92 2.779 3.103 6.074 5.478 8.551-1.991.556-3.699 1.658-5.165 3.042-1.233.02-2.456.03-3.628.051-1.668 2.739-3.355 5.478-4.75 8.359 1.819-.465 3.679-.94 5.559-1.435-.061.97-.172 2.901-.232 3.871-5.569 3.305-12.634 4.356-16.728 9.763 2.133-.05 4.376-.495 5.913-2.163.515-.081 1.536-.253 2.052-.333-4.797 10.988-13.689 5.811-18.425 11.007 2.971 1.183 6.034 2.234 9.228 2.729-1.213.425-2.395.889-3.537 1.385-3.669.273-7.398.051-10.956 1.001 19.656 4.168 20.25-1.075 23.873-4.326-1.466 4.811-5.802 7.833-10.451 9.147 2.607 1.152 5.438 2.011 8.348 1.466 2.81-1.678 5.145-4.033 7.843-5.893.708 4.639-2.951 8.015-5.579 11.32 3.81-1.152 7.014-3.608 10.713-5.033-.162 1.051-.293 2.102-.384 3.174-16.071 14.274-11.987 8.668-20.862 14.352 2.335.182 4.771.273 7.166.293-.111.414-.344 1.243-.465 1.658-3.393 1.696-6.117 3.839-10.572 3.487 1.86.323 3.699.677 5.599 1.041.071.91.202 2.719.273 3.628-1.94.475-3.022 1.85-3.275 3.8-.526.152-1.577.465-2.102.617.05 1.183.151 2.375.293 3.578 2.79 1.061 5.66 1.9 8.601 2.577.536 1.708 1.021 3.386 1.587 5.134-1.829.141-4.124-1.688-5.559-.606 1.132 1.698 3.052 2.507 5.104 2.476 2.345 1.617 3.982 5.165 7.277 4.74 4.781-.465 9.188 1.698 13.806 2.557-1.769.96-3.477 1.991-5.155 3.022 1.233 2.395 1.233 5.529-.91 7.429-3.305 3.285-8.439.809-11.815 4.013 1.365 1.284 1.223 2.628-.01 3.911 1.9 1.728 1.001 4.68 1.324 6.994-1.405 2.587-.849 5.529-.768 8.328 3.639 1.617 7.055 3.73 10.087 6.347-3.487-.95-5.741 2.244-6.064 5.347-2.102 2.183-1.344 5.296-2.598 7.752-5.66 4.366-13.736 3.073-19.224 7.722 2.537.04 5.064-.606 7.641-.667-1.284 2.031-2.557 4.063-3.811 6.095-1.203.051-2.375.121-3.517.202-.091 1.425-.152 2.87-.192 4.326 1.769 1.122 3.629 2.173 5.256 3.568-.283 2.85-3.244 4.568-5.781 5.195.455.829.94 1.668 1.466 2.527-1.041 1.637-2.072 3.275-3.063 4.932.778.313 2.355.94 3.144 1.263-1.334 2.507-3.629 4.215-5.832 5.882 2.678 1.749 4.437 4.296 5.145 7.429-.182 2.618.263 5.205.768 7.772-.536.516-1.607 1.546-2.143 2.062.01 1.829.192 3.679.071 5.529-2.072 2.982-5.822 3.901-8.783 5.68-.263 2.193-.051 4.467.424 6.64 3.917 4.707 4.223-3.181 2.981 25.48-.485 6.792 1.132 13.463 1.627 20.204.131 3.649 1.92 6.883 2.84 10.35-.111 3.315-1.183 6.519-1.213 9.844.164 11.018-20.275 33.017-23.651 35.466-9.946 8.288-22.66 12.442-35.314 14.261-4.033 4.983-9.895 8.146-16.262 8.834-4.144-.101-6.6 3.457-9.582 5.68-24.491 18.216-11.002 8.999-29.048 15.444-7.025 2.456-15.161-.313-21.62 3.891 14.12 72.836-12.111 69.391-9.854 107.45.121 2.527 1.951 4.568 2.385 7.045-1.344 3.275-3.821 5.953-5.387 9.127.657-.586 1.971-1.749 2.628-2.335-1.728 6.59-.303 13.948-3.891 20.043-1.92 3.002-3.002 6.398-4.346 9.662-2.719 2.699-5.367 5.498-7.388 8.763-2.042 3.952-7.277 5.104-8.621 9.531-2.648 4.771-2.082 11.108-6.256 14.969-.212-3.659.182-7.54-2.103-10.653-7.674 6.121-2.575 25.502-1.718 30.756-1.607-.526-3.194-1.061-4.74-1.577-.748-3.022-1.334-6.085-1.9-9.127-.536-.02-1.617-.061-2.153-.081-.799 1.738-1.314 4.457-3.558 4.76-7.23-9.853-2.135-21.408-7.267-19.608-1.092 2.416-1.739 5.033-3.224 7.257-2.981 4.154-2.769 9.713-6.084 13.715-.657-2.153-.728-4.619-2.446-6.236-.344 5.842-2.668 11.118-5.003 16.374-.334 4.619-.526 9.43.556 13.998-.455.465-1.385 1.395-1.839 1.86-1.819-4.457-6.944-6.186-8.551-10.673-.688-1.395-1.223-2.82-2.021-4.114-1.688-.687-3.558-.677-5.276-.92 2.891 3.76 2.972 8.611 4.073 13.038-.556.192-1.657.556-2.213.738-1.324-.859-2.668-1.668-4.023-2.385-9.023-16.323-13.68-19.024-21.094-25.561-6.396 21.887 7.212 11.159 4.457 27.148-.091-3.649-.546-7.52-3.184-10.269-1.071.03-2.102.091-3.113.172-1.193 1.334-2.699 2.234-4.437 2.598.162-2.961.536-5.903.99-8.824-3.305-4.932-5.812-10.532-7.459-16.222-2.759-.273-5.539-1.132-5.609-4.336-4.518-2.153-6.317-6.782-8.146-11.067-1.556-4.215-6.479-6.742-5.832-11.694-.394.091-1.182.253-1.576.344-.819 1.001-1.607 2.011-2.365 3.052-1.334-.04-2.638-.061-3.921-.061.364-3.709-1.85-6.438-3.335-9.521 2.153 1.243 3.234 3.537 4.154 5.771.051-1.354.111-2.688.222-4.002-1.132-.708-2.203-1.395-3.275-2.072-1.445-4.447-.152-9.147-1.001-13.635-.424-.374-1.253-1.112-1.667-1.476-.516 2.082-.96 4.205-1.344 6.337-.96-.303-1.859-.677-2.688-1.132-.607-3.507.414-7.419-1.567-10.572.152 1.122.455 3.355.607 4.467-2.497-.061-4.922-.364-6.428-2.507-.886-14.993-6.442-13.852-7.075-19.75-.96.98-1.991 1.9-2.89 2.901-2.78-4.821.253-10.148 1.011-15.09.394-4.104 5.134-6.347 4.669-10.623-6.378 2.082-8.995 8.692-13.776 12.836.414-6.529 3.79-12.654 2.992-19.325-1.041-6.57 4.033-11.805 4.538-18.132-.273-1.567-1.132-2.901-1.759-4.296-4.467 4.316-3.77 11.158-6.812 16.323-.344-1.637-.667-3.265-.95-4.872-.738.051-2.203.142-2.931.192-.02-.526-.041-1.587-.061-2.123-.95.152-2.87.445-3.82.586.849-1.385 1.799-2.759 3.699-2.224-.583-17.404 1.46-13.304 3.76-22.498-3.063 2.405-4.468 6.196-7.338 8.773-2.881 2.456-2.749 6.802-5.569 9.278.596-5.185 2.143-10.198 4.104-15.019 3.041-6.834 4.074-2.442 2.466-13.21-2.82 3.265-7.115 6.024-6.954 10.865.071 3.618-3.366 5.731-4.174 9.036-.556 2.891-2.739 4.922-4.609 7.004-.586-1.304-1.668-2.466-1.668-3.911-.051-2.951 2.416-4.932 4.053-7.085-.394-1.718-.778-3.447-1.082-5.145-1.627 3.972-5.508 6.095-9.127 7.934 1.85-4.134 6.458-8.46 3.709-13.21-2.304-4.356 1.587-8.399 2.648-12.513-.596.01-1.789.03-2.385.04-1.273 3.623-10.539 23.47-11.654 25.278-1.557-4.659-.364-9.602.06-14.332 2.335-3.285 3.942-6.964 5.771-10.542-.526-.061-1.577-.182-2.092-.243-.546-1.092-1.061-2.173-1.546-3.244-13.361.792-8.665 12.86-8.49 16.788-.698 2.214-2.365 4.114-4.72 4.528.546-5.539 1.263-11.138.384-16.677-.778-4.76 1.91-9.268 1.122-14.039 1.284-1.122 2.891-2.153 2.992-4.043-3.932-1.213-1.162-6.61-3.416-9.43-1.688 3.497-4.498 6.034-7.914 7.762-2.072 3.447-4.184 6.873-6.004 10.451-.738-.02-2.193-.051-2.931-.071-.051 1.476-.101 2.951-.071 4.457-.637.98-1.435 1.587-2.375 1.789.081-3.881-.01-7.853 1.506-11.502 1.425-3.841-.121-7.995.991-11.876.627-2.476.162-5.033 0-7.52-11.558 12.486-6.556 18.245-12.068 27.219-1.476-5.013-1.425-10.36-3.305-15.242 3.447-4.72 6.155-9.966 6.903-15.828-2.405 2.365-5.781 3.527-7.995 6.044-3.56 7.023-1.46 13.239-11.35 26.299-1.314-.081-2.598-.131-3.861-.141 3.776-2.522 5.329-11.325 8.652-33.232-3.123 4.124-6.196 8.561-7.318 13.685-.859 2.193-3.356 3.548-3.437 6.084-.596 4.356-.839 9.976-5.296 12.28-.505-.606-1.001-1.112-1.516-1.617.485.071 1.476.222 1.961.303 2.559-9.782.182-12.496.323-22.438-3.79 5.256-8.015 10.4-13.443 14.029-.94-.131-1.85-.253-2.729-.354-.232-4.508 3.436-7.874 4.659-12.028-1.294.303-2.557.596-3.8.91 2.375-3.538 4.478-7.328 5.367-11.532-2.719 1.759-4.346 4.579-5.771 7.399-7.976 1.655-11.461 13.211-13.453 14.938-2.021 1.567-4.235 2.84-6.216 4.437-6.827 1.576-5.012 1.286-11.997 1.172.849-.657 1.688-1.324 2.608-1.941.505-2.193 1.182-4.346 1.749-6.519-3.396 2.102-6.833 4.235-10.795 5.033-.788-1.011-1.506-1.981-2.244-2.961-3.437 4.124-7.682 7.742-12.856 9.43-.344-2.992-.627-6.084-2.527-8.53-1.799 1.324.121 3.032.435 4.548.869 1.567-.455 3.143-.97 4.589-1.759-1.556-3.467-3.123-5.185-4.659-8.253 12.332-4.628 3.063-11.431 14.372-3.315.182-4.791-2.992-5.367-5.741-1.506 2.203-3.376 4.104-5.498 5.7-.839 2.79-1.89 5.508-3.143 8.126-1.506-.061-2.992-.091-4.437-.121.475-1.162.97-2.314 1.496-3.457 0-.768.01-2.325.01-3.093-1.597.616-3.204 1.223-4.75 1.86-.121-1.738-.172-3.487-.152-5.205-.677-.101-2.011-.303-2.678-.404-1.526-2.517-2.031-5.488-3.093-8.187-2.608 3.386-4.589 7.277-7.874 10.097.465.849.95 1.708 1.466 2.577-1.981 1.789-2.911 4.215-2.84 6.863-.232.708-.697 2.123-.93 2.83-2.153-.485-3.123-2.335-3.881-4.174-1.597 1.587-3.042 3.416-5.013 4.548-1.365-.131-2.668-.455-3.962-.728.607-1.031 1.243-2.042 1.9-3.032-.172-.546-.515-1.637-.687-2.173 1.405-.98 2.87-1.88 4.457-2.577 2.072-3.649 3.133-7.782 3.204-11.967-3.153 1.93-5.478 4.841-8.369 7.105-2.395 3.214-3.052 7.348-4.204 11.108-.97.101-2.921.313-3.891.414-.728-2.001-1.051-4.073-1.182-6.155-.465 2.547-1.243 5.054-2.638 7.257-.263 4.619-.111 9.248-.03 13.877-1.021 0-3.073-.02-4.104-.02-1.132-3.153-2.072-6.368-2.79-9.632-1.688 6.105-2.335 12.503-2.193 18.83-.758-.02-2.274-.061-3.032-.091-.536-1.627-1.102-3.255-1.647-4.841-2.017 12.101.243 15.142-1.486 21.862-1.294.425-2.547.879-3.8 1.324-.374 4.336-.263 8.682-.172 13.038-1.637.03-3.255.212-4.255-1.253-.344 5.043-2.618 9.844-1.819 14.999-3.244.293-3.234 6.378.041 6.539.04 1.011.101 3.032.131 4.033-1.88-.091-3.699-.131-5.529-.182 1.013 6.719 3.437 3.744 3.153 17.87-.404-.738-1.203-2.224-1.607-2.972-1.122 6.044-2.496 12.028-3.972 17.981.91 4.316 3.81 7.843 5.387 11.927 4.002 9.288 2.83 19.598 3.669 29.432-.495 3.093-3.275 6.216-1.172 9.299 1.405 2.042-.899 4.225-.121 6.378 1.149 1.634 2.869 3.127 13.443 6.63-3.558.404-7.075 1.162-10.653 1.284-.788 2.375-3.133 3.426-4.821 5.043-1.074 2.055 1.019 18.313 1.172 19.315 1.496 5.589 4.063 10.875 5.175 16.596 4.05 17.444-3.968 4.162 36.285 56.004 3.568 4.498 7.095 9.096 9.925 14.12 3.875 20.26.76 46.978 10.542 70.427 4.041 20.123 2.557 17.215 2.557 34.435-.131 4.791 2.052 9.319 1.839 14.13 4.508 6.519 1.627 15.04 5.397 21.821 1.302 2.458 20.013 44.177 11.098 53.457-3.77.778-7.813-.546-11.411.91-2.517 1.001-2.244 4.023-2.759 6.216-2.567 1.425-4.821 3.729-7.823 4.124-20.925 1.803-52.697-6.777-72.853-12.412-28.172-7.467-34.804-18.476-41.217-24.672-3.588-3.275-4.892-9.086-2.365-13.342 2.113-4.063 3.174-8.571 5.509-12.523 2.426-4.609.263-9.683.152-14.504-.322-7.943-2.908-11.757-12.462-9.804-.617-.809-1.213-1.597-1.799-2.365-6.135.071-10.198-7.125-8.086-12.573 1.647-5.397 6.347-9.117 8.116-14.433 1.85-5.074 5.61-9.107 8.055-13.857.849-4.235.9-8.591 1.263-12.877-8.177-1.223-16.091 2.325-23.499 5.327-.394-.414-1.172-1.243-1.567-1.658-2.102.121-4.205.212-6.277.303-.01-.94-.04-2.83-.051-3.78 3.437-1.698 5.761-4.791 7.985-7.793 3.194-3.669-.475-9.026 2.021-13.069 3.699-6.246 6.57-12.937 10.036-19.315 1.708-2.698.91-6.004.738-8.965-1.465-.98-3.851-1.375-4.083-3.426-.505-2.749-.182-5.549-.637-8.268-2.021-1.597-4.488-2.456-6.792-3.467-.819 10.526 4.056 11.932 3.002 16.758-1.179 5.342 1.909 7.529-6.469 10.936.97-1.951 2.517-3.982 1.344-6.196-2.042-4.973-.849-10.997-4.75-15.151-.455 1.415-.869 2.86-1.263 4.316-2.739-.152-5.417-.698-8.025-1.445-1.893 9.852 10.5 19.963 2.759 36.244-1.102-4.781 1.274-9.693-.475-14.362-.96-3.942-3.507-7.166-5.175-10.764-.627-4.417-.556-10.047-5.013-12.523-1.91 3.467-3.285 7.217-4.043 11.108 1.091 3.386 2.931 6.954 1.607 10.582-1.981 5.134-3.285 11.31.182 16.141-1.84 1.284-4.013 1.435-6.155 1.344.263-5.013-2.385-9.43-4.265-13.867-2.153-.111-4.862-.152-5.933-2.365-.384-3.618.546-7.247.01-10.825-2.032-3.224-3.74-6.641-4.195-10.461-1.193-.04-2.365-.05-3.517-.061-5.877 18.825-7.086 16.837-5.579 22.256-.394.505-.758 1.031-1.102 1.587-1.041-1.627-2.699-2.557-4.245-3.578.111-1.779.283-3.527.505-5.256-4.578 3.224-6.661 8.621-10.299 12.705.237-3.656 8.096-18.893 9.359-25.359-9.383 10.28-4.205 11.285-18.041 22.377 2.274-4.457 6.095-7.995 7.934-12.675.98-3.861 1.607-7.793 2.587-11.643-1.344 1.172-2.668 2.365-3.962 3.568-1.071-.02-2.122-.02-3.143 0-5.064 8.194-15.888 21.904-25.319 23.974 12.503-4.467 14.491-19.905 25.763-28.351-.131-5.448 2.214-10.693 2.082-16.101-1.91-.809-1.445 2.193-2.123 3.255-.081 2.112-2.456 1.991-3.962 2.385-.384-1.142-.738-2.274-1.061-3.396-1.466.081-2.931.141-4.356.243.081-.677.243-2.032.313-2.709-6.994 1.769-9.298 9.117-11.431 15.141-2.234.697-4.447 1.486-6.56 2.466-.303 4.882-5.731 5.872-9.278 7.712.516-5.296 6.944-6.62 8.632-11.31.465-3.639-1.284-7.055-2.133-10.491-.495 2.315.061 5.225-1.991 6.893-1.678.303-3.396.263-5.023-.061-1.294-2.021-.01-4.579-.92-6.711-1.415-3.265-3.123-6.388-4.599-9.602-.404-.192-1.203-.566-1.607-.748.92 3.588 1.122 7.51-1.708 10.34-2.436-.374-4.75-1.071-6.994-1.981-3.662-1.665-5.934 2.355-7.237-5.852-.536-.333-1.607-1.001-2.143-1.324-1.385-.051-2.759-.131-4.083-.192-1.91-2.294-4.498-4.336-4.851-7.489-.859-1.688-.465-5.367-3.103-5.043-.081 1.627.202 3.275.526 4.892-1.627-1.819-3.396-3.487-5.205-5.084.243-2.749.283-5.508.051-8.248-.485.93-.95 1.87-1.385 2.84-1.85.051-3.679.121-5.488.212-1.061-4.043-3.517-7.439-5.145-11.219-4.013-.677-2.537-5.791-3.174-8.702-1.385 2.375-3.002 4.609-4.882 6.61-.111.728-.334 2.173-.445 2.901-.616-.364-1.86-1.102-2.476-1.466.404-3.81 1.668-7.449 2.749-11.098-1.536-1.334-2.961-2.81-3.426-4.831-2.911 2.921-5.902-.455-8.611-1.728-1.809-.798-3.204-2.193-4.538-3.568.465 3.467 1.668 6.772 2.497 10.168.808.243 1.647.505 2.507.788.394.889.819 1.799 1.284 2.709-.98.586-1.971 1.162-2.911 1.789.03.98.081 2.961.111 3.942-2.072-1.233-.809-3.871-.778-5.711-1.87-.273-4.093-.111-5.306-1.819-3.79-4.498-2.537-10.956-5.721-15.717-2.294-4.013-2.638-8.854-5.397-12.604-2.164 10.509-17.138 41.231-22.094 58.854-22.49 68.739-18.918 61.891-11.229 131.373.583 6.932 20.493 45.679 20.548 50.657-.082 6.012 9.486 19.009 10.026 20.022 2.658 3.901 3.325 8.692 5.609 12.796 2.85 5.044 2.426 11.169 5.266 16.222 5.247 9.985 11.277 26.975.96 31.403-1.84.95-3.952.748-5.923.91-1.405 5.913-7.166 9.521-12.755 10.703-10.683-.718-21.407.03-32.08-.515-8.409-1.617-16.98-1.829-25.511-1.951-20.033-3.463-51.101-14.553-61.26-30.311-2.35-21.78.873-18.259 3.346-28.998-.617-3.012-1.435-5.983-1.708-9.046-.647-3.558-4.993-4.72-7.702-2.588-.434-1.405-.97-2.88-1.344-4.225-2.234 1.314-4.366 3.255-7.095 3.265-5.296.576-10.38-4.296-9.945-9.612-.03-5.407 6.699-20.398 8.217-30.473 7.066-34.25 3.617-2.791 11.249-49.404 2.214-10.309-.202-20.821.333-31.211.698-4.872 1.951-9.642 2.719-14.494-4.417 5.327-9.39 10.127-13.483 15.737-.505.091-1.516.263-2.021.354 1.639-10.845 8.186-7.911 7.378-27.481-8.425-1.336-7.591.562-10.208 4.872.05-1.85.202-3.669.414-5.478-.111-.374-.334-1.122-.435-1.486 1.061-2.517 1.708-5.165 1.9-7.874-6.933 5.711-9.854 14.554-15.808 21.104-3.153 4.75-9.076 6.58-11.623 11.815-3.558 1.314-5.468 5.084-9.086 5.984-.93-5.205 3.042-8.662 5.66-12.513 1.567-1.698.283-3.942-.05-5.822-1.051.03-2.082.091-3.093.162-.849 1.334-1.526 2.901-2.921 3.78-1.9.344-3.841.323-5.731.465.101-.596.313-1.799.414-2.395 3.527-2.092 4.417-6.438 5.387-10.087-2.234 0-4.376.465-6.317 1.557-.293 6.863.697 13.857-1.112 20.599-.778-.081-2.335-.243-3.123-.323.03-.718.081-2.153.111-2.87-1.182-.637-2.345-1.253-3.487-1.839-3.372-17.568-1.082-16.289-2.274-24.217-.505.081-1.526.232-2.031.313-.819 3.537-2.122 6.994-2.446 10.653-1.182.152-2.345.323-3.497.515-.809-4.114 1.496-8.005.859-12.068-.748-1.749-2.729-1.172-4.194-1.334-.99 3.487-1.87 7.308-4.7 9.834-.455-2.729 1.061-6.448-1.971-8.045.92-.718 1.86-1.435 2.81-2.133-.02-.738-.051-2.213-.071-2.951-.748 1.738-1.789 3.325-3.073 4.72 0-12.663 5.315-15.53 3.881-35.123-.718 2.426-1.718 4.781-3.073 6.944-.778.061-2.345.192-3.123.253.152-2.951.344-5.892.637-8.813h-.323c-1.627 2.021-3.426 3.911-5.013 5.973-.03-1.688-.04-3.366-.04-5.023-.738.253-1.455.526-2.163.819.374-1.829-.374-2.82-2.214-2.901.04.809.111 2.436.152 3.255-.445.384-1.334 1.142-1.779 1.526-.778 2.183-.96 5.043-3.538 5.994.323-3.881.768-7.732.809-11.613-.879-1.082-1.738-2.163-2.567-3.224 4.094-4.932 9.177-11.896 5.306-18.365 1.334-8.429 6.044-16.444 4.619-25.278-.364-.354-1.082-1.082-1.445-1.445-1.284 5.124-2.517 10.552-6.327 14.473-2.931 2.941-4.558 7.399-8.702 8.905-.344-1.365-.687-2.689-1.263-3.932 4.063-3.932 2.456-9.774 2.971-14.767 1.031-2.476 2.476-4.771 3.255-7.338-3.699 2.395-3.982 8.621-8.743 9.278.253-3.709 1.021-7.358 1.789-10.977-4.397 4.346-9.592 8.531-16.02 8.985.081-1.425.202-2.8.303-4.184 2.82-1.445 5.903-2.577 8.055-5.013.586-3.719 1.142-7.469.637-11.219-2.456 2.153-4.538 4.7-5.973 7.631-5.02.163-2.414.058-7.904 1.243.131-.425.394-1.263.516-1.688 1.688-.162 3.396-.273 5.084-.576 12.434-23.514 9.773-19.342 9.622-27.431-1.658 1.799-3.366 3.558-5.225 5.145.576-2.486 1.334-4.902 2.122-7.318-.404-1.455-.778-2.891-1.132-4.306-5.304-5.885 1.272-17.332 2.304-24.085 1.031-4.619-1.294-9.48.637-13.958 5.347-7.762 8.409-16.879 14.312-24.308-9.276.927-25.316 7.357-26.4 7.803.131-.465.394-1.395.526-1.86 1.004-.412 18.341-13.813 29.402-25.662-1.991-.061-3.942-.071-5.903-.051 2.446-1.971 3.992-5.023 7.035-6.206 12.528-5.93 28.854-15.276 34.839-27.724-4.831 2.133-9.693 4.366-13.807 7.742-2.18 6.234-18.665 10.773-23.954 12.21-3.093 1.718-6.499 2.81-10.057 2.891 17.875-8.542 26.213-6.801 31.959-16.525-.01-.93-.02-2.81-.03-3.74-2.011-.101-3.992-.162-5.973-.232 2.704-1.159 10.151-3.042 19.931-18.021 9.745-12.115 12.145-13.916 10.269-23.732-2.395 1.365-5.539 2.092-6.802 4.821l-.475-.081c1.629-6.84 13.239-15.801 13.766-28.543-1.607 0-3.164.03-4.72.04-.728-4.083 3.113-7.206 2.496-11.209-.869-1.162-1.91-2.173-2.86-3.194-5.609.384-11.209.445-16.727 1.556-.071-1.102-.111-2.183-.131-3.265 1.415-.92 2.779-1.961 3.911-3.244-4.275-.364-7.348 3.002-9.278 6.398-2.781-2.922-3.514-1.435-.061-9.076-4.841-.333-9.349-4.225-14.17-2.375-1.89.9-3.174-1.112-4.488-2.021-.071-2.234-.01-4.619-1.698-6.287-.536-1.031-1.021-2.042-1.506-3.063-2.193 2.648-5.701 3.063-8.581 4.579-2.274 1.142-4.488 2.547-7.045 2.901-.101-.92-.192-1.819-.263-2.709 2.042-1.385 4.083-3.052 2.203-5.599-6.157 4.428-25.32 5.76-30.099 5.377.192-.637.576-1.92.768-2.567 6.853-.576 10.097-7.823 9.369-13.968-3.376-.222-7.692-.162-8.702-4.205-3.932.738-7.813 1.708-11.593 3.012-.768-2.143-1.435-4.296-2.032-6.469-4.697 1.744-11.96-2.058-15.939-5.134-2.274.839-4.771 1.152-6.681-.596.071-.93.192-2.779.253-3.699-8.985 1.627-18.395-.404-27.087 2.779-4.508 1.031-9.187.546-13.756.546 3.75-3.629 7.833-6.883 11.866-10.178-3.467.778-6.731-.435-10.067-1.051-5.157.688-13.251 2.833-14.756-.445-4.012-.01-7.752 1.557-10.451 4.518-3.831.162-7.651.081-11.451-.081-.414-1.092-.94-2.092-1.587-3.002-2.84.01-5.347 1.314-7.671 2.779-3.821 2.517-8.52 2.658-12.715 4.184-1.668.687-3.457.445-5.155.202.516-1.092 1.536-3.275 2.052-4.366-4.012 1.213-8.682 3.81-12.705 1.223 0-.657.01-1.961.02-2.618-4.184 2.304-8.854 3.184-13.574 2.557 1.465-1.496 2.931-3.174 2.416-5.448-41.663 8.899-36.313 6.544-38.822 16.182 3.063.232 5.66-1.132 7.904-3.062-5.125 5.574-8.375 5.498-12.23 5.498-.151-1.577-.293-3.143-.424-4.69-1.253 1.061-2.507 2.123-3.74 3.194-1.182-1.931-2.365-3.851-3.558-5.751-2.587 4.356-7.035 6.681-11.451 8.783-.799-1.061-1.233-2.416-2.294-3.194-2.739-.333-5.64-.758-8.308-.02-10.867 8.284-.861 3.013-17.971 8.045-1.092.697-2.193 1.395-3.285 2.092-.01.374-.05 1.122-.061 1.496-.627.061-1.88.172-2.507.222-1.88 2.143-4.195 3.81-6.681 5.165 2.264-1.627 4.316-3.568 4.579-6.58-2.688 1.304-5.246 2.82-7.813 4.336.425-1.728.869-3.436 1.324-5.145-5.104.758-10.815-.202-15.221 3.012-2.507 2.143-5.842.526-8.743 1.162-4.164.637-7.004 6.064-11.532 3.527.04-.859.111-2.577.152-3.437-.708.121-1.415.253-2.092.394-2.4 3.071-14.173 10.689-17.213 12.523-.97.051-1.93.121-2.88.202-.293-2.719 1.829-4.296 3.76-5.731-1.243-1.647-2.81-3.608-5.145-2.84-4.195-.404-6.428 3.548-9.561 5.498-2.709 1.395-5.68 2.143-8.531 3.153.374 2.658.374 5.488 1.516 7.975 6.549 5.519 13.918 10.087 20.346 15.757-2.628 4.002 2.81 7.004 2.891 10.966-.091 1.496.93 3.901-1.364 4.195-1.86 1.142-1.86 3.911-2.931 5.731-.798-.071-2.406-.223-3.214-.293-.121 2.042-.222 4.094-.313 6.165-1.647.131-3.285.283-4.912.455-.263.637-.798 1.91-1.061 2.547-.404-.354-1.213-1.061-1.617-1.405 1.001 3.598-2.789 3.911-5.326 3.467-.01 2.092-.344 4.336.778 6.256-7.441 7.366-1.929 7.36-5.852 15.717-1.071.061-2.133.141-3.174.232-1.152 1.263-2.557 2.173-4.255 2.426-.94-3.214-1.708-6.539-3.416-9.43.071 5.114 1.021 10.279-.354 15.333-.485.425-1.455 1.253-1.941 1.668-.505 3.275-.677 6.59-.637 9.915-.313.586-.95 1.759-1.263 2.345-1.425.061-2.84.141-4.235.243.263-.849.778-2.527 1.031-3.366-.485.03-1.466.081-1.951.111-.061-1.415-.111-2.81-.142-4.184-.455-.414-1.385-1.233-1.839-1.648-1.546-5.69-4.397-10.875-6.196-16.454-3.871-5.781-3.73-13.069-6.095-19.295-.69-28.727-3.973-21.624-10.168-36.042-1.769-.647-3.588-1.162-5.407-1.526-23.209-19.019-31.278-10.134-85.032-47.099-27.225-19.066-108.974-88.414-165.192-114.828-7.166 14.012-33.237 89.33-39.539 155.54-2.153 27.391-3.002 54.953-7.591 82.101-.687 4.033-2.517 7.964-2.042 12.129.475 4.377.141 8.925-1.243 13.129-3.75 4.073-6.58 9.42-6.357 15.1-1.068 45.191-6.428 112.829 12.705 151.244 31.539 71.923 88.611 154.703 155.226 202.589 4.649 3.416 6.226 9.208 9.379 13.796 3.663 6.9 35.08 41.255 24.53 54.589 1.794 15.314-8.611 14.256-49.02 16.556-51.911 1.025-51.811-1.049-67.536-7.5-43.181-17.207-11.326-24.786-36.133-31.666-4.447-1.071-8.945-2.345-13.574-2.072-3.527.293-6.509-2.355-10.077-2.082-4.225.313-7.863-2.092-11.067-4.508-2.102-2.759-3.962-5.741-5.488-8.834.081-4.174 2.123-8.025 2.123-12.199.384-6.772-1.93-13.907 1.051-20.356 4.479-13.896 12.404-1.546-141.612-267.426-10.4-13.604-20.083-27.765-30.17-41.601-3.81-4.862-5.69-10.825-8.429-16.283 20.831-85.805 19.84-50.643 23.176-133.688-8.894 8.672-14.19 20.417-23.418 28.816-45.21 43.118-26.341 14.103-77.775 79.938-19.921 24.388-58.362 103.889-68.79 165.313-22.266 86.155-11.237 116.875-6.014 143.532 1.095 8.422 12.797 5.054 23.206 19.183 10.069 8.467 10.639 16.205 26.956 39.539 3.062 4.356 8.359 6.519 11.158 11.098 3.932 5.933 8.844 11.421 11.421 18.132-.263 5.205.586 11.805-4.174 15.333-2.557 2.335-6.266 1.557-9.44 1.769-3.467 12.981-5.336 11.495-17.971 12.058 0 0-59.683-.901-63.756-1.102-17.273-2.609-48.928-15.455-49.97-32.929-.02-6.792-1.031-13.635.556-20.336-42.342 3.877-24.621-20.887-17.395-44.532-.101-9.41-.768-18.83-1.233-28.219-1.546-4.669-4.74-8.621-6.903-13.018-3.295-.687-6.539-1.678-9.885-2.042-6.56-.101-13.857 2.426-19.77-1.465-.131-2.962-.819-5.832-1.152-8.743.9-3.871 2.689-7.459 3.628-11.31.889-4.245 3.76-7.58 5.994-11.158 25.699-38.629 12.15-7.365 22.236-43.512 5.596-17.735 5.966-10.205 10.34-37.194-2.857-25.213 14.642-43.558 16.151-54.458 18.713-110.352 10.879-54.113 14.706-114.333 5.821-45.546 15.17-52.301 18.698-74.662 2.608-8.227.758-16.899 1.738-25.298 3.598-14.534 6.944-29.26 12.685-43.117 14.859-11.181 15.325-4.17 62.847-61.492.668-1.006 23.786-36.381 24.803-39.903 14.238-49.948 13.794-47.738-5.357-113.16-.398-1-20.7-41.253-26.926-51.668-6.873-11.017-10.33-23.711-16.778-34.941-10.801-21.183-6.503-20.597-13.554-37.993-12.472-33.01-17.297-48.477-25.036-96.665-10.717-94.526 44.671-175.723 45.412-178.301-8.476-.638-53.476 15.284-69.679 69.295-19.056 46.45-13.29 129.648-2.931 147.656 19.156 38.886 13.889 27.579 15.282 40.853.556 5.175 2.264 10.168 2.79 15.353-.172 4.073-3.335 7.206-4.518 10.966.515 4.397 2.709 8.662 1.708 13.17-4.406 25.563-4.314 54.706-9.743 59.814-.788 1.294-1.607 2.567-2.496 3.81-.283 3.74 1.041 7.469.404 11.209-1.991 5.387-5.943 10.036-6.843 15.818-1.536 1.344-2.941 2.82-4.184 4.457-3.932 1.516-7.277 4.083-10.501 6.731l-.131-.424c2.268-1.56 18.566-19.567 17.485-31.777-1.203.93-2.395 1.86-3.588 2.81-1.051-.131-2.102-.253-3.153-.364-5.908 9.416-.4 9.902-20.912 31.504-2.224 2.234-3.295 5.306-5.337 7.681-1.688 1.001-3.598 1.536-5.428 2.214 16.212-19.659 14.63-12.893 22.862-35.931-16.374 13.373-11.562 16.131-17.597 23.58-5.68 5.377-9.895 12.573-17.101 16.161-4.508 2.426-8.399 5.741-12.422 8.854-6.479 2.284-13.038 5.195-20.032 5.205 2.951-.869 6.196-1.769 7.277-5.023-4.366 1.223-8.723 2.476-13.038 3.871-4.791 4.7-12.381 3.78-18.526 3.315 2.496-.162 4.942-.708 7.115-1.991 22.688-8.397 22.674-5.531 31.706-10.926 5.217-3.264 13.917-1.515 22.913-16.465 1.476-2.102.222-5.124 2.133-7.004 2.021-2.042 4.659-3.8 4.983-6.934-1.314.586-2.628 1.193-3.932 1.839 8.588-4.976 10.211-21.366 10.441-22.367-4.265 4.215-8.915 8.217-14.585 10.4 6.256-5.246 11.694-11.381 17.283-17.283 1.213-6.357 4.407-12.058 6.105-18.254-4.993 4.619-8.611 10.451-12.796 15.767-5.06 5.426-21.32 9.446-27.431 13.887-4.649 3.335-10.016 5.407-14.847 8.44-7.115 4.639-16.232 1.698-23.722 5.367-2.818 1.416-17.379 7.602-24.146 7.762 4.659-4.76 11.532-6.054 16.94-9.703 6.741-4.194 14.949-2.749 22.418-3.871 4.447-1.577 7.874-5.084 11.937-7.419 7.479-5.205 16.707-6.691 24.813-10.582 4.296-4.387 8.146-9.258 12.017-14.019 3.457-8.015 9.349-14.564 13.837-21.963.495-6.085-.263-12.23-.687-18.314-2.304 3.305-2.345 7.469-3.73 11.148-3.39 9.896-13.788 25.03-16.869 27.583-8.247 2.739-13.321 10.431-20.922 14.312-18.968 9.718-4.864 5.482-35.456 3.396 4.963-.081 9.905.748 14.847.94 6.145-.556 12.038-2.557 18.142-3.376.889-1.728 1.93-3.366 3.517-4.508 2.375-1.445 2.345-4.457 3.608-6.65 4.467-2.81 9.905-3.922 14.13-7.095 2.739-4.285 7.166-7.914 7.51-13.311 3.119-23.241 11.808-19.846 9.46-40.57-.339 1.001-2.651 15.662-6.388 14.069-1.001-3.244 1.213-6.186 2.143-9.167.805-1.741 3.316-22.933 3.406-25.076-13.055 25.542-9.518 26.604-14.302 36.507-4.773 11.254-.915 13.358-3.639 19.477-2.456 5.852-3.821 12.321-8.035 17.283 3.342-13.369 2.491-.158 6.944-39.802.384-4.771 4.326-8.288 4.902-13.008 5.943-33.344 6.697-24.416 10.319-33.495-.232-9.097-5.213-5.166 1.385-27.027-6.721 8.234-9.633 35.649-21.973 63.17-1.86 3.871-1.86 8.247-2.557 12.412-.677 4.599-2.042 9.066-3.275 13.544-.364-.515-1.102-1.536-1.466-2.052 1.071-5.468 2.81-10.825 3.325-16.394.536-4.296.798-8.632 1.557-12.887 1.88-6.984 6.287-13.129 7.257-20.366.935-6.102 6.787-36.184 5.983-43.703.515 3.719.798 7.459 1.112 11.209-.364-6.721-.243-13.453.253-20.164.772-7.096-5.706-8.903.182-29.594-2.87 5.094-6.62 10.168-6.853 16.242-.344 7.924-2.668 15.565-3.345 23.449-.869 8.379-5.276 15.686-8.541 23.267.827-5.638 4.465-15.586 4.973-19.224-1.253-7.52.313-15.12 2.092-22.418.455-3.992-.02-8.035.323-12.038.202-2.881 2.284-5.225 2.668-8.035-.313-1.971-.92-3.871-1.445-5.771 18.348-32.003 9.512-22.182 13.139-30.554 1.031-2.476 2.193-4.892 3.062-7.419-5.913 6.923-9.814 15.646-10.896 24.682-6.923 4.902-8.409 13.908-9.885 21.67-2.699 3.346-6.428 5.731-9.531 8.702-.657 4.629-1.132 9.289-1.678 13.938-.354 4.447-3.164 8.247-3.406 12.735-.455.03-1.344.091-1.789.121 3.871-9.602 2.648-20.043 3.962-30.089 2.395-2.931 5.458-5.276 8.51-7.5 4.101-2.805 3.283-32.428 10.633-38.043 1.172-4.76 2.941-9.38 3.426-14.281-3.841 4.144-6.135 9.369-8.894 14.221-1.668 2.955-8.139 6.044-11.431 18.466.404 3.942 2.678 7.631 2.315 11.684-1.274 3.265-3.275 6.165-5.013 9.198-1.567.374-3.123.748-4.69 1.112-.061-2.426 1.496-4.043 3.174-5.478 1.213-4.356 2.062-9.006.778-13.463-1.516-4.659 1.688-9.026 2.658-13.473 2.315-2.658 4.073-5.761 6.519-8.308.515-.081 1.536-.233 2.052-.313 1.647-4.892 1.779-10.38 4.7-14.777 3.174-3.548 8.035-5.064 11.027-8.814-7.156 2.961-14.837 5.397-20.578 10.835-5.018 8.171-6.659 27.287-15.686 26.673 1.243-3.184 2.527-6.347 4.235-9.309 3.628-5.984 3.517-13.352 6.59-19.568 5.831-9.705 10.626-7.285 14.11-10.026 4.545-3.388 4.685-3.022 16.748-19.618-.859-1.334-1.698-2.658-2.547-3.982 1.698-1.648 3.911-3.174 4.013-5.781-6.984 2.901-14.666 2.385-21.751.162 2.395-.01 4.791-.071 7.186-.172 5.074-5.064 13.827-3.578 18.183-9.632 7.976-37.469 8.322-38.706 37.649-82.545 28.997-34.995 43.284-36.982 54.68-45.23 6.63-4.851 13.614-9.632 21.801-11.381 4.518-.425 6.6-5.155 10.582-6.711 8.325-3.278-1.611-3.359 24.854-9.602 4.002-.849 6.994-3.841 10.4-5.903 24.149-15.231 22.536-4.895 65.727-20.962 10.451-2.224 20.7-5.357 31.211-7.328 5.195-.809 10.845.172 15.565-2.658 177.179-108.733 111.233-28.758 297.778-101.133.071-1.92.556-3.77 1.334-5.529.586.162 1.749.465 2.335.627-.465-.455-1.385-1.354-1.84-1.809 6.994-1.708 14.221-2.264 21.225-3.952 1.89-.03 2.183-2.072 2.992-3.376 1.162-.101 2.335-.192 3.517-.273.344.546 1.011 1.658 1.344 2.213 3.002-.404 6.822.536 8.884-2.274 1.86-1.981 4.892-.404 7.257-.505-.303-.697-.91-2.092-1.223-2.79 2.203-2.507 6.226-.657 9.157-.809 2.001-4.326 7.661-2.699 11.462-4.073.323-.556.96-1.678 1.284-2.234 1.971-.404 3.962-.718 5.973-.97.435-.94.879-1.87 1.334-2.81 6.287-.879 12.937.556 18.931-1.971 3.831-1.031 7.752.697 11.654.323 1.961-.94.768-3.436 1.051-5.114 2.759.142 3.75-1.789 3.911-4.265 2.759-1.213 3.558-3.881 3.558-6.701 16.14-.887 12.31-4.072 14.302-9.572 2.294-.02 4.599-.131 6.883-.556 2.86.95 5.872 1.273 8.884 1.284 1.897-8.254 1.961-5.293 6.984-5.155 2.81-4.872 8.5-.95 12.391.263 1.031-1.607 1.941-3.335 3.285-4.73 3.8-.778 7.52.617 10.987 2.042 1.041-1.536 1.9-3.174 2.699-4.862 2.001.283 4.023.546 6.064.728 3.265-2.921 7.51.02 11.29-.556 2.719-.222 3.972-4.205 6.994-3.143 4.7 1.081 10.421 3.406 14.413-.617 4.093-.061 7.904-1.637 11.896-2.284 5.357-.04 10.754-.131 16.04-1.152 0-.667 0-1.991 0-2.648 2.456-.95 4.781-2.224 7.206-3.255 3.74-.697 7.601 3.992 11.077.91 2.648-2.406 5.973-3.568 9.561-3.255 4.255-1.718 8.389-3.649 12.048-6.458 5.63-1.061 11.371-2.123 17.132-2.507.526-.98 1.081-1.971 1.647-2.941 4.68.101 8.46-2.881 12.543-4.71 3.416 1.152 7.075-.162 10.501.93 2.052.606 4.174.859 6.327.97-.243-1.476-.293-2.992-.788-4.407-.889-1.385-2.557-2.183-2.901-3.932 2.466-.03 4.942.02 7.419.121.364-.475 1.112-1.425 1.476-1.9 2.153 1.102 4.599.849 6.954.819-.202-1.84-.586-3.659-1.365-5.337 4.932.798 9.177 3.851 14.15 4.356 1.647-2.567 3.366-5.104 4.619-7.914 2.88-1.233 5.711-2.79 8.854-3.265 2.901.606 5.832 1.162 8.824 1.152.677-2.123 1.071-4.306 1.263-6.509 2.931.829 6.054 2.921 9.127 1.395 4.841-1.88 10.4-.647 15.141-2.891 9.38-16.327 9.662.647 26.986-15.474 7.903 3.65 8.323-3.585 14.989-3.133.566-.667 1.142-1.344 1.738-2.021 4.548-.364 9.177-.061 13.655-1.172 1.294-1.637 2.476-3.366 3.831-4.963 1.607-.485 2.931.809 4.376 1.294 2.203.243 4.427-.02 6.661-.131.647-2.153 1.435-4.255 2.335-6.307 2.456-.364 4.033 1.324 4.801 3.507 4.063.253 7.53-2.406 11.583-2.325 2.102.04 3.982-.991 5.943-1.627 8.802-1.609 9.584 2.997 24.065-5.417 1.263-.98 2.921-.889 4.437-1.203 5.488-.93 10.471-4.033 16.131-4.002 1.577-.081 2.688-1.395 3.992-2.163 3.75.374 8.045.94 10.623-2.496 3.073.303 6.115.859 9.208 1.112.414-.515 1.263-1.536 1.678-2.052 2.496-.606 4.882-1.587 7.237-2.638.445-1.041.9-2.082 1.385-3.123 1.556.04 3.123.081 4.72.121.101.617.313 1.84.414 2.456 3.942-.212 7.853-.859 11.815-1.112.04.455.121 1.364.162 1.819 4.791.708 7.681-4.356 12.331-3.992 3.083.212 5.731-1.587 8.591-2.426 5.225 1.91 10.511-.778 15.747-1.233 2.911-.101 3.285 3.457 5.68 4.316 2.021.96 4.346.606 6.549.778-.182-1.688-.384-3.386-1.061-4.953.475-.344 1.435-1.031 1.91-1.375 3.275 2.011 6.873 3.74 10.845 3.073 1.344-2.486 2.961-5.599 6.347-4.326 1.415 3.8 5.872 3.153 9.127 3.426.03.819.091 2.466.121 3.285 1.223-.222 2.466-.455 3.72-.697-1.809-2.385-1.536-5.347-1.304-8.136 2.689.546 5.448 2.082 8.237 1.132 2.901-.93 6.145-.424 8.894-1.93 1.88 2.092 2.891 4.73 2.82 7.56 4.558-1.122 9.198-2.011 13.918-1.476 1.688 2.689 5.246 2.011 7.692.788 2.284-1.779 4.518-4.68 7.823-3.922.768 2.608-.657 4.427-3.275 4.508.778.202 1.567.394 2.385.596.051.485.162 1.445.212 1.93 1.011-1.405 2.82-1.152 4.366-1.395.92-2.891 1.88-5.771 2.84-8.662 2.79-.617 5.286.465 7.136 2.577 1.839 2.325 4.872 1.829 7.5 1.647 0 .505.02 1.506.03 2.001 1.668-.445 3.366-.9 5.064-1.354.95-1.466 1.9-2.931 2.84-4.417 3.153.485 5.984 2.203 7.53 5.043-.374-2.881 2.618-2.244 4.538-2.133 1.84.647 3.386 1.92 4.963 3.052 1.85.04 3.8.202 5.559-.606 1.274.627 2.689.556 4.114.515.596-.718 1.223-1.425 1.87-2.133 3.911-.546 7.014-3.73 11.148-3.255.263-.576.798-1.749 1.061-2.335 1.011.03 3.042.101 4.053.131.283 1.506.606 3.002.93 4.508.627.071 1.86.222 2.486.303-.071.839-.121 1.688-.152 2.527 2.234-1.334 4.68-2.365 7.338-2.446 6.465-6.027 4.39-6.638 14.676-5.428-.01 1.324 0 2.648.03 3.972 3.419-.546 7.159-2.669 7.381-6.54m-269.195 1257.305c-.92 2.901-1.253 5.943-1.183 8.995.859-.141 2.567-.414 3.416-.556 1.031-2.123 1.466-4.498 1.738-6.802-.12-2.183-2.556-1.404-3.971-1.637m15.828 66.061c0-.627 0-1.87 0-2.497-1.506-.475-1.506 2.962 0 2.497m29.19 24.368c-.859 2.688-2.143 5.336-1.86 8.247 4.562-1.14 5.253 2.642 6.691-8.813-1.638.162-3.234.354-4.831.566z"/><g stroke="#000" stroke-width=".0938"><path d="m1420.896 46.545c.58.51.58.51 0 0z"/><path d="m1794.896 76.135c2.93-1.61.24 3.32 0 0z"/><path d="m1365.326 1403.265c.39-.26 1.18-.77 1.58-1.02-.86 1.18-1.68 2.41-2.43 3.67-1.15 1.85-2.43 3.62-3.72 5.38-1.67.09-3.33.21-4.95.4-1.32.77-2.89.68-4.32.83.82-.41 1.66-.8 2.52-1.17 2.4-1.23 5.01-2.19 7.07-3.98 1.44-1.39 1.81-4.13 4.25-4.11z"/></g></svg>